<svg width="36" height="21" viewBox="0 0 36 21" fill="none" xmlns="http://www.w3.org/2000/svg">
<path d="M17.8079 20.0851H19.9024C19.9024 20.0851 20.5356 20.0149 20.8577 19.6666C21.1556 19.3467 21.1447 18.7464 21.1447 18.7464C21.1447 18.7464 21.103 15.9354 22.4088 15.5213C23.6949 15.1138 25.3469 18.2381 27.0974 19.4409C28.4208 20.3502 29.4264 20.1508 29.4264 20.1508L34.1084 20.0851C34.1084 20.0851 36.5579 19.9339 35.3967 18.0081C35.3025 17.8503 34.7197 16.5839 31.9153 13.9811C28.9794 11.2556 29.3738 11.6982 32.91 6.98548C35.0637 4.11536 35.9247 2.36262 35.6552 1.61332C35.3989 0.899077 33.8148 1.0875 33.8148 1.0875L28.5478 1.11817C28.5478 1.11817 28.1578 1.06559 27.8665 1.23867C27.5838 1.40956 27.402 1.80393 27.402 1.80393C27.402 1.80393 26.5672 4.02553 25.4542 5.91412C23.1078 9.89942 22.1678 10.1097 21.7844 9.86217C20.8927 9.28596 21.1162 7.54417 21.1162 6.30848C21.1162 2.44587 21.7012 0.83554 19.9747 0.419263C19.4007 0.281235 18.98 0.189215 17.5143 0.173879C15.6345 0.154161 14.0417 0.180452 13.1412 0.620829C12.5409 0.914413 12.0786 1.5695 12.3612 1.60675C12.7096 1.65276 13.4983 1.81927 13.9168 2.38891C14.458 3.12287 14.4382 4.77483 14.4382 4.77483C14.4382 4.77483 14.7494 9.32101 13.713 9.88627C13.001 10.2741 12.026 9.48314 9.93369 5.86592C8.86232 4.01458 8.05168 1.96606 8.05168 1.96606C8.05168 1.96606 7.89612 1.58484 7.61787 1.38108C7.28047 1.13351 6.80723 1.05463 6.80723 1.05463L1.79876 1.08531C1.79876 1.08531 1.04727 1.10722 0.771217 1.43366C0.525833 1.72506 0.751498 2.32537 0.751498 2.32537C0.751498 2.32537 4.67326 11.4988 9.11209 16.1239C13.185 20.3633 17.8079 20.0851 17.8079 20.0851Z" fill="#1E88E5"/>
</svg>
